<svg xmlns="http://www.w3.org/2000/svg" viewBox="0 0 617.29 288.4"><defs><style>.cls-1{fill:#fff}</style></defs><title>logo</title><g id="Layer_2" data-name="Layer 2"><g id="Layer_1-2" data-name="Layer 1"><rect class="cls-1" x="55.78" y="-12.29" width="54.4" height="312.98" rx="27.2" ry="27.2" transform="rotate(25.57 82.967 144.166)"/><rect class="cls-1" x="167.94" y="-12.29" width="54.4" height="312.98" rx="27.2" ry="27.2" transform="rotate(154.43 195.135 144.208)"/><rect class="cls-1" x="169.95" y="-12.29" width="54.4" height="312.98" rx="27.2" ry="27.2" transform="rotate(-25.57 197.115 144.193)"/><rect class="cls-1" x="282.11" y="-12.29" width="54.4" height="312.98" rx="27.2" ry="27.2" transform="rotate(-154.43 309.325 144.192)"/><rect class="cls-1" x="394.95" y="-12.29" width="54.4" height="312.98" rx="27.2" ry="27.2" transform="rotate(-25.57 422.06 144.197)"/><rect class="cls-1" x="507.11" y="-12.29" width="54.4" height="312.98" rx="27.2" ry="27.2" transform="rotate(-154.43 534.321 144.18)"/><rect class="cls-1" x="51.73" y="191.2" width="54.4" height="140" rx="27.2" ry="27.2" transform="rotate(-90 78.93 261.2)"/><rect class="cls-1" x="519.73" y="-42.8" width="54.4" height="140" rx="27.2" ry="27.2" transform="rotate(-90 546.93 27.2)"/></g></g></svg>